<svg xmlns="http://www.w3.org/2000/svg" xmlns:xlink="http://www.w3.org/1999/xlink" width="2004.751" height="987.445" contentScriptType="application/ecmascript" contentStyleType="text/css" style="width:2004px;height:987px" preserveAspectRatio="none" version="1.1" viewBox="0 0 2004 987" zoomAndPan="magnify"><g><text x="861.554" y="19.483" fill="#747FE4" font-family="Open Sans" font-size="12.216" lengthAdjust="spacingAndGlyphs" textLength="276.892">Smart contract interactions (component level)</text><rect style="stroke:#a80036;stroke-width:.6786562606040041" width="368.85" height="956.121" x="134.035" y="27.793" fill="#E1DABD" rx="8.483" ry="8.483"/><text x="252.291" y="35.982" fill="#000" font-family="sans-serif" font-size="8.822" font-weight="bold" lengthAdjust="spacingAndGlyphs" textLength="132.338">Development Environment</text><rect style="stroke:#a80036;stroke-width:.6786562606040041" width="335.935" height="956.121" x="631.49" y="27.793" fill="#ABC798" rx="8.483" ry="8.483"/><text x="755.344" y="35.982" fill="#000" font-family="sans-serif" font-size="8.822" font-weight="bold" lengthAdjust="spacingAndGlyphs" textLength="88.225">User Environment</text><rect style="stroke:#a80036;stroke-width:.6786562606040041" width="571.089" height="956.121" x="1232.779" y="27.793" fill="#028090" rx="8.483" ry="8.483"/><text x="1434.17" y="35.982" fill="#000" font-family="sans-serif" font-size="8.822" font-weight="bold" lengthAdjust="spacingAndGlyphs" textLength="168.307">Blockchain Validator Environment</text><line style="stroke:#6631a0;stroke-width:2.035968781812012;stroke-dasharray:5,5" x1="39.362" x2="39.362" y1="117.27" y2="891.722"/><line style="stroke:#6631a0;stroke-width:2.035968781812012;stroke-dasharray:5,5" x1="184.934" x2="184.934" y1="117.27" y2="891.722"/><line style="stroke:#6631a0;stroke-width:2.035968781812012;stroke-dasharray:5,5" x1="441.127" x2="441.127" y1="117.27" y2="891.722"/><line style="stroke:#6631a0;stroke-width:2.035968781812012;stroke-dasharray:5,5" x1="523.923" x2="523.923" y1="117.27" y2="891.722"/><line style="stroke:#6631a0;stroke-width:2.035968781812012;stroke-dasharray:5,5" x1="702.749" x2="702.749" y1="117.27" y2="891.722"/><line style="stroke:#6631a0;stroke-width:2.035968781812012;stroke-dasharray:5,5" x1="917.883" x2="917.883" y1="117.27" y2="891.722"/><line style="stroke:#6631a0;stroke-width:2.035968781812012;stroke-dasharray:5,5" x1="1084.153" x2="1084.153" y1="117.27" y2="891.722"/><line style="stroke:#6631a0;stroke-width:2.035968781812012;stroke-dasharray:5,5" x1="1282.321" x2="1282.321" y1="117.27" y2="891.722"/><line style="stroke:#6631a0;stroke-width:2.035968781812012;stroke-dasharray:5,5" x1="1482.864" x2="1482.864" y1="117.27" y2="891.722"/><line style="stroke:#6631a0;stroke-width:2.035968781812012;stroke-dasharray:5,5" x1="1719.715" x2="1719.715" y1="117.27" y2="891.722"/><line style="stroke:#6631a0;stroke-width:2.035968781812012;stroke-dasharray:5,5" x1="1902.274" x2="1902.274" y1="117.27" y2="891.722"/><text x="3.393" y="114.069" fill="#6631A0" font-family="Open Sans" font-size="13.573" lengthAdjust="spacingAndGlyphs" textLength="68.544">Developer</text><ellipse cx="39.701" cy="65.501" fill="#747FE4" rx="5.429" ry="5.429" style="stroke:#6631a0;stroke-width:1.3573125212080082"/><path fill="none" d="M39.7014,70.9302 L39.7014,89.2539 M30.8789,76.3594 L48.5239,76.3594 M39.7014,89.2539 L30.8789,99.4337 M39.7014,89.2539 L48.5239,99.4337" style="stroke:#6631a0;stroke-width:1.3573125212080082"/><text x="3.393" y="903.643" fill="#6631A0" font-family="Open Sans" font-size="13.573" lengthAdjust="spacingAndGlyphs" textLength="68.544">Developer</text><ellipse cx="39.701" cy="913.63" fill="#747FE4" rx="5.429" ry="5.429" style="stroke:#6631a0;stroke-width:1.3573125212080082"/><path fill="none" d="M39.7014,919.0596 L39.7014,937.3834 M30.8789,924.4889 L48.5239,924.4889 M39.7014,937.3834 L30.8789,947.5632 M39.7014,937.3834 L48.5239,947.5632" style="stroke:#6631a0;stroke-width:1.3573125212080082"/><rect style="stroke:#eae9eb;stroke-width:1.017984390906006" width="96.369" height="72.701" x="136.749" y="43.89" fill="#EAE9EB" rx="8.483" ry="8.483"/><text x="141.5" y="61.239" fill="#6631A0" font-family="Open Sans" font-size="13.573" lengthAdjust="spacingAndGlyphs" textLength="86.868">&lt;&lt;Editor&gt;&gt;</text><text x="162.877" y="77.039" fill="#6631A0" font-family="Open Sans" font-size="13.573" lengthAdjust="spacingAndGlyphs" textLength="48.185">Truffle,</text><text x="154.734" y="92.839" fill="#6631A0" font-family="Open Sans" font-size="13.573" lengthAdjust="spacingAndGlyphs" textLength="64.472">Remix or,</text><text x="156.77" y="108.639" fill="#6631A0" font-family="Open Sans" font-size="13.573" lengthAdjust="spacingAndGlyphs" textLength="60.4">Terminal</text><rect style="stroke:#eae9eb;stroke-width:1.017984390906006" width="96.369" height="72.701" x="136.749" y="891.044" fill="#EAE9EB" rx="8.483" ry="8.483"/><text x="141.5" y="908.393" fill="#6631A0" font-family="Open Sans" font-size="13.573" lengthAdjust="spacingAndGlyphs" textLength="86.868">&lt;&lt;Editor&gt;&gt;</text><text x="162.877" y="924.193" fill="#6631A0" font-family="Open Sans" font-size="13.573" lengthAdjust="spacingAndGlyphs" textLength="48.185">Truffle,</text><text x="154.734" y="939.993" fill="#6631A0" font-family="Open Sans" font-size="13.573" lengthAdjust="spacingAndGlyphs" textLength="64.472">Remix or,</text><text x="156.77" y="955.793" fill="#6631A0" font-family="Open Sans" font-size="13.573" lengthAdjust="spacingAndGlyphs" textLength="60.4">Terminal</text><rect style="stroke:#eae9eb;stroke-width:1.017984390906006" width="117.407" height="56.901" x="382.762" y="59.69" fill="#EAE9EB" rx="8.483" ry="8.483"/><text x="387.513" y="77.039" fill="#6631A0" font-family="Open Sans" font-size="13.573" lengthAdjust="spacingAndGlyphs" textLength="107.906">&lt;&lt;Compiler&gt;&gt;</text><text x="409.23" y="92.839" fill="#6631A0" font-family="Open Sans" font-size="13.573" lengthAdjust="spacingAndGlyphs" textLength="68.544">Solidity or</text><text x="428.911" y="108.639" fill="#6631A0" font-family="Open Sans" font-size="13.573" lengthAdjust="spacingAndGlyphs" textLength="29.182">IELE</text><rect style="stroke:#eae9eb;stroke-width:1.017984390906006" width="117.407" height="56.901" x="382.762" y="891.044" fill="#EAE9EB" rx="8.483" ry="8.483"/><text x="387.513" y="908.393" fill="#6631A0" font-family="Open Sans" font-size="13.573" lengthAdjust="spacingAndGlyphs" textLength="107.906">&lt;&lt;Compiler&gt;&gt;</text><text x="409.23" y="924.193" fill="#6631A0" font-family="Open Sans" font-size="13.573" lengthAdjust="spacingAndGlyphs" textLength="68.544">Solidity or</text><text x="428.911" y="939.993" fill="#6631A0" font-family="Open Sans" font-size="13.573" lengthAdjust="spacingAndGlyphs" textLength="29.182">IELE</text><text x="506.956" y="114.069" fill="#6631A0" font-family="Open Sans" font-size="13.573" lengthAdjust="spacingAndGlyphs" textLength="30.54">User</text><ellipse cx="524.262" cy="65.501" fill="#747FE4" rx="5.429" ry="5.429" style="stroke:#6631a0;stroke-width:1.3573125212080082"/><path fill="none" d="M524.262,70.9302 L524.262,89.2539 M515.4394,76.3594 L533.0845,76.3594 M524.262,89.2539 L515.4394,99.4337 M524.262,89.2539 L533.0845,99.4337" style="stroke:#6631a0;stroke-width:1.3573125212080082"/><text x="506.956" y="903.643" fill="#6631A0" font-family="Open Sans" font-size="13.573" lengthAdjust="spacingAndGlyphs" textLength="30.54">User</text><ellipse cx="524.262" cy="913.63" fill="#747FE4" rx="5.429" ry="5.429" style="stroke:#6631a0;stroke-width:1.3573125212080082"/><path fill="none" d="M524.262,919.0596 L524.262,937.3834 M515.4394,924.4889 L533.0845,924.4889 M524.262,937.3834 L515.4394,947.5632 M524.262,937.3834 L533.0845,947.5632" style="stroke:#6631a0;stroke-width:1.3573125212080082"/><rect style="stroke:#eae9eb;stroke-width:1.017984390906006" width="137.089" height="72.701" x="634.204" y="43.89" fill="#EAE9EB" rx="8.483" ry="8.483"/><text x="657.957" y="61.239" fill="#6631A0" font-family="Open Sans" font-size="13.573" lengthAdjust="spacingAndGlyphs" textLength="89.583">&lt;&lt;Wallet&gt;&gt;</text><text x="643.027" y="77.039" fill="#6631A0" font-family="Open Sans" font-size="13.573" lengthAdjust="spacingAndGlyphs" textLength="119.444">Integrated in IDE,</text><text x="673.227" y="92.839" fill="#6631A0" font-family="Open Sans" font-size="13.573" lengthAdjust="spacingAndGlyphs" textLength="59.043">Mallet or</text><text x="669.834" y="108.639" fill="#6631A0" font-family="Open Sans" font-size="13.573" lengthAdjust="spacingAndGlyphs" textLength="69.902">Metamask</text><rect style="stroke:#eae9eb;stroke-width:1.017984390906006" width="137.089" height="72.701" x="634.204" y="891.044" fill="#EAE9EB" rx="8.483" ry="8.483"/><text x="657.957" y="908.393" fill="#6631A0" font-family="Open Sans" font-size="13.573" lengthAdjust="spacingAndGlyphs" textLength="89.583">&lt;&lt;Wallet&gt;&gt;</text><text x="643.027" y="924.193" fill="#6631A0" font-family="Open Sans" font-size="13.573" lengthAdjust="spacingAndGlyphs" textLength="119.444">Integrated in IDE,</text><text x="673.227" y="939.993" fill="#6631A0" font-family="Open Sans" font-size="13.573" lengthAdjust="spacingAndGlyphs" textLength="59.043">Mallet or</text><text x="669.834" y="955.793" fill="#6631A0" font-family="Open Sans" font-size="13.573" lengthAdjust="spacingAndGlyphs" textLength="69.902">Metamask</text><rect style="stroke:#eae9eb;stroke-width:1.017984390906006" width="93.655" height="25.301" x="871.055" y="91.29" fill="#EAE9EB" rx="8.483" ry="8.483"/><text x="875.806" y="108.639" fill="#6631A0" font-family="Open Sans" font-size="13.573" lengthAdjust="spacingAndGlyphs" textLength="84.153">Mantis Node</text><rect style="stroke:#eae9eb;stroke-width:1.017984390906006" width="93.655" height="25.301" x="871.055" y="891.044" fill="#EAE9EB" rx="8.483" ry="8.483"/><text x="875.806" y="908.393" fill="#6631A0" font-family="Open Sans" font-size="13.573" lengthAdjust="spacingAndGlyphs" textLength="84.153">Mantis Node</text><text x="1044.791" y="114.069" fill="#6631A0" font-family="Open Sans" font-size="13.573" lengthAdjust="spacingAndGlyphs" textLength="74.652">Blockchain</text><path fill="#EAE9EB" d="M1071.9376,77.0381 C1071.9376,70.2515 1084.1534,70.2515 1084.1534,70.2515 C1084.1534,70.2515 1096.3692,70.2515 1096.3692,77.0381 L1096.3692,94.6832 C1096.3692,101.4697 1084.1534,101.4697 1084.1534,101.4697 C1084.1534,101.4697 1071.9376,101.4697 1071.9376,94.6832 L1071.9376,77.0381" style="stroke:#333;stroke-width:1.017984390906006"/><path fill="none" d="M1071.9376,77.0381 C1071.9376,83.8247 1084.1534,83.8247 1084.1534,83.8247 C1084.1534,83.8247 1096.3692,83.8247 1096.3692,77.0381" style="stroke:#333;stroke-width:1.017984390906006"/><text x="1044.791" y="903.643" fill="#6631A0" font-family="Open Sans" font-size="13.573" lengthAdjust="spacingAndGlyphs" textLength="74.652">Blockchain</text><path fill="#EAE9EB" d="M1071.9376,913.6304 C1071.9376,906.8438 1084.1534,906.8438 1084.1534,906.8438 C1084.1534,906.8438 1096.3692,906.8438 1096.3692,913.6304 L1096.3692,931.2754 C1096.3692,938.062 1084.1534,938.062 1084.1534,938.062 C1084.1534,938.062 1071.9376,938.062 1071.9376,931.2754 L1071.9376,913.6304" style="stroke:#333;stroke-width:1.017984390906006"/><path fill="none" d="M1071.9376,913.6304 C1071.9376,920.4169 1084.1534,920.4169 1084.1534,920.4169 C1084.1534,920.4169 1096.3692,920.4169 1096.3692,913.6304" style="stroke:#333;stroke-width:1.017984390906006"/><rect style="stroke:#eae9eb;stroke-width:1.017984390906006" width="93.655" height="25.301" x="1235.494" y="91.29" fill="#EAE9EB" rx="8.483" ry="8.483"/><text x="1240.244" y="108.639" fill="#6631A0" font-family="Open Sans" font-size="13.573" lengthAdjust="spacingAndGlyphs" textLength="84.153">Mantis Node</text><rect style="stroke:#eae9eb;stroke-width:1.017984390906006" width="93.655" height="25.301" x="1235.494" y="891.044" fill="#EAE9EB" rx="8.483" ry="8.483"/><text x="1240.244" y="908.393" fill="#6631A0" font-family="Open Sans" font-size="13.573" lengthAdjust="spacingAndGlyphs" textLength="84.153">Mantis Node</text><rect style="stroke:#eae9eb;stroke-width:1.017984390906006" width="110.621" height="41.101" x="1427.893" y="75.49" fill="#EAE9EB" rx="8.483" ry="8.483"/><text x="1432.643" y="92.839" fill="#6631A0" font-family="Open Sans" font-size="13.573" lengthAdjust="spacingAndGlyphs" textLength="97.048">Blockvalidator</text><text x="1450.628" y="108.639" fill="#6631A0" font-family="Open Sans" font-size="13.573" lengthAdjust="spacingAndGlyphs" textLength="65.151">(ie Miner)</text><rect style="stroke:#eae9eb;stroke-width:1.017984390906006" width="110.621" height="41.101" x="1427.893" y="891.044" fill="#EAE9EB" rx="8.483" ry="8.483"/><text x="1432.643" y="908.393" fill="#6631A0" font-family="Open Sans" font-size="13.573" lengthAdjust="spacingAndGlyphs" textLength="97.048">Blockvalidator</text><text x="1450.628" y="924.193" fill="#6631A0" font-family="Open Sans" font-size="13.573" lengthAdjust="spacingAndGlyphs" textLength="65.151">(ie Miner)</text><rect style="stroke:#eae9eb;stroke-width:1.017984390906006" width="162.199" height="56.901" x="1638.955" y="59.69" fill="#EAE9EB" rx="8.483" ry="8.483"/><text x="1643.706" y="77.039" fill="#6631A0" font-family="Open Sans" font-size="13.573" lengthAdjust="spacingAndGlyphs" textLength="152.698">&lt;&lt;Virtual Machine&gt;&gt;</text><text x="1705.463" y="92.839" fill="#6631A0" font-family="Open Sans" font-size="13.573" lengthAdjust="spacingAndGlyphs" textLength="29.182">IELE</text><text x="1700.713" y="108.639" fill="#6631A0" font-family="Open Sans" font-size="13.573" lengthAdjust="spacingAndGlyphs" textLength="38.683">KEVM</text><rect style="stroke:#eae9eb;stroke-width:1.017984390906006" width="162.199" height="56.901" x="1638.955" y="891.044" fill="#EAE9EB" rx="8.483" ry="8.483"/><text x="1643.706" y="908.393" fill="#6631A0" font-family="Open Sans" font-size="13.573" lengthAdjust="spacingAndGlyphs" textLength="152.698">&lt;&lt;Virtual Machine&gt;&gt;</text><text x="1705.463" y="924.193" fill="#6631A0" font-family="Open Sans" font-size="13.573" lengthAdjust="spacingAndGlyphs" textLength="29.182">IELE</text><text x="1700.713" y="939.993" fill="#6631A0" font-family="Open Sans" font-size="13.573" lengthAdjust="spacingAndGlyphs" textLength="38.683">KEVM</text><text x="1807.94" y="82.469" fill="#6631A0" font-family="Open Sans" font-size="13.573" lengthAdjust="spacingAndGlyphs" textLength="184.595">&lt;&lt;Blockchain validator&gt;&gt;</text><text x="1825.585" y="98.269" fill="#6631A0" font-family="Open Sans" font-size="13.573" lengthAdjust="spacingAndGlyphs" textLength="153.376">Stake Pool Operator or</text><text x="1883.271" y="114.069" fill="#6631A0" font-family="Open Sans" font-size="13.573" lengthAdjust="spacingAndGlyphs" textLength="38.005">Miner</text><ellipse cx="1902.274" cy="33.901" fill="#747FE4" rx="5.429" ry="5.429" style="stroke:#6631a0;stroke-width:1.3573125212080082"/><path fill="none" d="M1902.2735,39.3303 L1902.2735,57.654 M1893.451,44.7595 L1911.096,44.7595 M1902.2735,57.654 L1893.451,67.8338 M1902.2735,57.654 L1911.096,67.8338" style="stroke:#6631a0;stroke-width:1.3573125212080082"/><text x="1807.94" y="903.643" fill="#6631A0" font-family="Open Sans" font-size="13.573" lengthAdjust="spacingAndGlyphs" textLength="184.595">&lt;&lt;Blockchain validator&gt;&gt;</text><text x="1825.585" y="919.443" fill="#6631A0" font-family="Open Sans" font-size="13.573" lengthAdjust="spacingAndGlyphs" textLength="153.376">Stake Pool Operator or</text><text x="1883.271" y="935.243" fill="#6631A0" font-family="Open Sans" font-size="13.573" lengthAdjust="spacingAndGlyphs" textLength="38.005">Miner</text><ellipse cx="1902.274" cy="945.23" fill="#747FE4" rx="5.429" ry="5.429" style="stroke:#6631a0;stroke-width:1.3573125212080082"/><path fill="none" d="M1902.2735,950.6596 L1902.2735,968.9833 M1893.451,956.0888 L1911.096,956.0888 M1902.2735,968.9833 L1893.451,979.1631 M1902.2735,968.9833 L1911.096,979.1631" style="stroke:#6631a0;stroke-width:1.3573125212080082"/><rect style="stroke:#747fe4;stroke-width:.6786562606040041" width="2000" height="2.036" x="0" y="140.779" fill="#747FE4"/><line style="stroke:#747fe4;stroke-width:1.6966406515100103" x1="0" x2="2000" y1="140.779" y2="140.779"/><line style="stroke:#747fe4;stroke-width:1.6966406515100103" x1="0" x2="2000" y1="142.815" y2="142.815"/><rect style="stroke:#747fe4;stroke-width:3.3932813030200206" width="147.947" height="21.229" x="926.027" y="130.843" fill="#747FE4"/><text x="930.098" y="146.156" fill="#333" font-family="Open Sans" font-size="13.573" lengthAdjust="spacingAndGlyphs" textLength="134.374">Development Stage</text><polygon fill="#747FE4" points="176.79 176.016 183.577 178.731 176.79 181.445 179.505 178.731" style="stroke:#747fe4;stroke-width:.6786562606040041"/><line style="stroke:#747fe4;stroke-width:2.035968781812012" x1="39.701" x2="180.862" y1="178.731" y2="178.731"/><text x="44.452" y="174.172" fill="#333" font-family="Open Sans" font-size="13.573" font-weight="bold" lengthAdjust="spacingAndGlyphs" textLength="21.717">[1]</text><text x="68.884" y="174.172" fill="#333" font-family="Open Sans" font-size="13.573" lengthAdjust="spacingAndGlyphs" textLength="104.513">code in Solidity</text><line style="stroke:#747fe4;stroke-width:2.035968781812012" x1="184.934" x2="213.437" y1="204.032" y2="204.032"/><line style="stroke:#747fe4;stroke-width:2.035968781812012" x1="213.437" x2="213.437" y1="204.032" y2="212.854"/><line style="stroke:#747fe4;stroke-width:2.035968781812012" x1="185.613" x2="213.437" y1="212.854" y2="212.854"/><polygon fill="#747FE4" points="192.399 210.139 185.613 212.854 192.399 215.569 189.684 212.854" style="stroke:#747fe4;stroke-width:.6786562606040041"/><text x="189.684" y="199.473" fill="#333" font-family="Open Sans" font-size="13.573" font-weight="bold" lengthAdjust="spacingAndGlyphs" textLength="21.717">[2]</text><text x="214.116" y="199.473" fill="#333" font-family="Open Sans" font-size="13.573" lengthAdjust="spacingAndGlyphs" textLength="173.736">Reflection, Trial and Error</text><polygon fill="#747FE4" points="47.167 235.441 40.38 238.155 47.167 240.87 44.452 238.155" style="stroke:#747fe4;stroke-width:.6786562606040041"/><line style="stroke:#747fe4;stroke-width:2.035968781812012" x1="43.095" x2="184.255" y1="238.155" y2="238.155"/><text x="51.239" y="233.597" fill="#333" font-family="Open Sans" font-size="13.573" font-weight="bold" lengthAdjust="spacingAndGlyphs" textLength="21.717">[3]</text><text x="75.67" y="233.597" fill="#333" font-family="Open Sans" font-size="13.573" lengthAdjust="spacingAndGlyphs" textLength="83.475">Source code</text><polygon fill="#747FE4" points="433.322 260.742 440.109 263.457 433.322 266.171 436.037 263.457" style="stroke:#747fe4;stroke-width:.6786562606040041"/><line style="stroke:#747fe4;stroke-width:2.035968781812012" x1="184.934" x2="437.394" y1="263.457" y2="263.457"/><text x="189.684" y="258.898" fill="#333" font-family="Open Sans" font-size="13.573" font-weight="bold" lengthAdjust="spacingAndGlyphs" textLength="21.717">[4]</text><text x="214.116" y="258.898" fill="#333" font-family="Open Sans" font-size="13.573" lengthAdjust="spacingAndGlyphs" textLength="94.333">try to compile</text><polygon fill="#747FE4" points="192.399 286.043 185.613 288.758 192.399 291.472 189.684 288.758" style="stroke:#747fe4;stroke-width:.6786562606040041"/><line style="stroke:#747fe4;stroke-width:2.035968781812012;stroke-dasharray:2,2" x1="188.327" x2="440.787" y1="288.758" y2="288.758"/><text x="196.471" y="284.199" fill="#333" font-family="Open Sans" font-size="13.573" font-weight="bold" lengthAdjust="spacingAndGlyphs" textLength="21.717">[5]</text><text x="220.903" y="284.199" fill="#333" font-family="Open Sans" font-size="13.573" lengthAdjust="spacingAndGlyphs" textLength="124.194">compilation errors</text><polygon fill="#747FE4" points="192.399 311.344 185.613 314.059 192.399 316.773 189.684 314.059" style="stroke:#747fe4;stroke-width:.6786562606040041"/><line style="stroke:#747fe4;stroke-width:2.035968781812012" x1="188.327" x2="440.787" y1="314.059" y2="314.059"/><text x="196.471" y="309.5" fill="#333" font-family="Open Sans" font-size="13.573" font-weight="bold" lengthAdjust="spacingAndGlyphs" textLength="21.717">[6]</text><text x="220.903" y="309.5" fill="#333" font-family="Open Sans" font-size="13.573" lengthAdjust="spacingAndGlyphs" textLength="215.813">translate code to IELE assembly</text><polygon fill="#747FE4" points="694.605 336.645 701.391 339.36 694.605 342.075 697.319 339.36" style="stroke:#747fe4;stroke-width:.6786562606040041"/><line style="stroke:#747fe4;stroke-width:2.035968781812012" x1="184.934" x2="698.677" y1="339.36" y2="339.36"/><text x="189.684" y="334.801" fill="#333" font-family="Open Sans" font-size="13.573" font-weight="bold" lengthAdjust="spacingAndGlyphs" textLength="21.717">[7]</text><text x="214.116" y="334.801" fill="#333" font-family="Open Sans" font-size="13.573" lengthAdjust="spacingAndGlyphs" textLength="149.304">deploy smart contract</text><polygon fill="#747FE4" points="694.605 361.947 701.391 364.661 694.605 367.376 697.319 364.661" style="stroke:#747fe4;stroke-width:.6786562606040041"/><line style="stroke:#747fe4;stroke-width:2.035968781812012;stroke-dasharray:2,2" x1="184.934" x2="698.677" y1="364.661" y2="364.661"/><text x="189.684" y="360.103" fill="#333" font-family="Open Sans" font-size="13.573" font-weight="bold" lengthAdjust="spacingAndGlyphs" textLength="21.717">[8]</text><text x="214.116" y="360.103" fill="#333" font-family="Open Sans" font-size="13.573" lengthAdjust="spacingAndGlyphs" textLength="131.659">load IELE Assembly</text><polygon fill="#747FE4" points="694.605 387.248 701.391 389.962 694.605 392.677 697.319 389.962" style="stroke:#747fe4;stroke-width:.6786562606040041"/><line style="stroke:#747fe4;stroke-width:2.035968781812012;stroke-dasharray:2,2" x1="184.934" x2="698.677" y1="389.962" y2="389.962"/><text x="189.684" y="385.404" fill="#333" font-family="Open Sans" font-size="13.573" font-weight="bold" lengthAdjust="spacingAndGlyphs" textLength="21.717">[9]</text><text x="214.116" y="385.404" fill="#333" font-family="Open Sans" font-size="13.573" lengthAdjust="spacingAndGlyphs" textLength="114.014">Sign Transaction</text><polygon fill="#747FE4" points="1076.009 412.549 1082.796 415.263 1076.009 417.978 1078.724 415.263" style="stroke:#747fe4;stroke-width:.6786562606040041"/><line style="stroke:#747fe4;stroke-width:2.035968781812012" x1="702.749" x2="1080.081" y1="415.263" y2="415.263"/><text x="707.499" y="410.705" fill="#333" font-family="Open Sans" font-size="13.573" font-weight="bold" lengthAdjust="spacingAndGlyphs" textLength="31.218">[10]</text><text x="741.432" y="410.705" fill="#333" font-family="Open Sans" font-size="13.573" lengthAdjust="spacingAndGlyphs" textLength="113.336">send transaction</text><polygon fill="#747FE4" points="710.214 437.85 703.427 440.565 710.214 443.279 707.499 440.565" style="stroke:#747fe4;stroke-width:.6786562606040041"/><line style="stroke:#747fe4;stroke-width:2.035968781812012" x1="706.142" x2="1083.475" y1="440.565" y2="440.565"/><text x="714.286" y="436.006" fill="#333" font-family="Open Sans" font-size="13.573" font-weight="bold" lengthAdjust="spacingAndGlyphs" textLength="31.218">[11]</text><text x="748.218" y="436.006" fill="#333" font-family="Open Sans" font-size="13.573" lengthAdjust="spacingAndGlyphs" textLength="86.868">confirmation</text><polygon fill="#747FE4" points="47.167 463.151 40.38 465.866 47.167 468.58 44.452 465.866" style="stroke:#747fe4;stroke-width:.6786562606040041"/><line style="stroke:#747fe4;stroke-width:2.035968781812012" x1="43.095" x2="702.07" y1="465.866" y2="465.866"/><text x="51.239" y="461.307" fill="#333" font-family="Open Sans" font-size="13.573" font-weight="bold" lengthAdjust="spacingAndGlyphs" textLength="31.218">[12]</text><text x="85.171" y="461.307" fill="#333" font-family="Open Sans" font-size="13.573" lengthAdjust="spacingAndGlyphs" textLength="86.868">confirmation</text><rect style="stroke:#747fe4;stroke-width:.6786562606040041" width="2000" height="2.036" x="0" y="488.017" fill="#747FE4"/><line style="stroke:#747fe4;stroke-width:1.6966406515100103" x1="0" x2="2000" y1="488.017" y2="488.017"/><line style="stroke:#747fe4;stroke-width:1.6966406515100103" x1="0" x2="2000" y1="490.053" y2="490.053"/><rect style="stroke:#747fe4;stroke-width:3.3932813030200206" width="124.194" height="21.229" x="937.903" y="478.082" fill="#747FE4"/><text x="941.975" y="493.395" fill="#333" font-family="Open Sans" font-size="13.573" lengthAdjust="spacingAndGlyphs" textLength="110.621">Execution Stage</text><polygon fill="#747FE4" points="694.605 523.255 701.391 525.969 694.605 528.684 697.319 525.969" style="stroke:#747fe4;stroke-width:.6786562606040041"/><line style="stroke:#747fe4;stroke-width:2.035968781812012" x1="524.262" x2="698.677" y1="525.969" y2="525.969"/><text x="529.013" y="521.411" fill="#333" font-family="Open Sans" font-size="13.573" font-weight="bold" lengthAdjust="spacingAndGlyphs" textLength="31.218">[13]</text><text x="562.945" y="521.411" fill="#333" font-family="Open Sans" font-size="13.573" lengthAdjust="spacingAndGlyphs" textLength="128.266">deposit to contract</text><polygon fill="#747FE4" points="909.739 548.556 916.525 551.27 909.739 553.985 912.453 551.27" style="stroke:#747fe4;stroke-width:.6786562606040041"/><line style="stroke:#747fe4;stroke-width:2.035968781812012" x1="702.749" x2="913.811" y1="551.27" y2="551.27"/><text x="707.499" y="546.712" fill="#333" font-family="Open Sans" font-size="13.573" font-weight="bold" lengthAdjust="spacingAndGlyphs" textLength="31.218">[14]</text><text x="741.432" y="546.712" fill="#333" font-family="Open Sans" font-size="13.573" lengthAdjust="spacingAndGlyphs" textLength="115.372">write transaction</text><polygon fill="#747FE4" points="1076.009 573.857 1082.796 576.572 1076.009 579.286 1078.724 576.572" style="stroke:#747fe4;stroke-width:.6786562606040041"/><line style="stroke:#747fe4;stroke-width:2.035968781812012" x1="917.883" x2="1080.081" y1="576.572" y2="576.572"/><text x="922.633" y="572.013" fill="#333" font-family="Open Sans" font-size="13.573" font-weight="bold" lengthAdjust="spacingAndGlyphs" textLength="31.218">[15]</text><text x="956.566" y="572.013" fill="#333" font-family="Open Sans" font-size="13.573" lengthAdjust="spacingAndGlyphs" textLength="113.336">send transaction</text><polygon fill="#747FE4" points="1274.177 614.958 1280.964 617.673 1274.177 620.387 1276.892 617.673" style="stroke:#747fe4;stroke-width:.6786562606040041"/><line style="stroke:#747fe4;stroke-width:2.035968781812012" x1="1084.153" x2="1278.249" y1="617.673" y2="617.673"/><text x="1088.904" y="605.214" fill="#333" font-family="Open Sans" font-size="13.573" font-weight="bold" lengthAdjust="spacingAndGlyphs" textLength="31.218">[16]</text><text x="1122.837" y="597.314" fill="#333" font-family="Open Sans" font-size="13.573" lengthAdjust="spacingAndGlyphs" textLength="124.873">append new block</text><text x="1122.837" y="613.114" fill="#333" font-family="Open Sans" font-size="13.573" lengthAdjust="spacingAndGlyphs" textLength="147.947">(a set of transactions)</text><polygon fill="#747FE4" points="1289.786 640.259 1283 642.974 1289.786 645.688 1287.072 642.974" style="stroke:#747fe4;stroke-width:.6786562606040041"/><line style="stroke:#747fe4;stroke-width:2.035968781812012;stroke-dasharray:2,2" x1="1285.714" x2="1901.595" y1="642.974" y2="642.974"/><text x="1293.858" y="638.415" fill="#333" font-family="Open Sans" font-size="13.573" font-weight="bold" lengthAdjust="spacingAndGlyphs" textLength="31.218">[17]</text><text x="1327.791" y="638.415" fill="#333" font-family="Open Sans" font-size="13.573" lengthAdjust="spacingAndGlyphs" textLength="99.084">monitor status</text><polygon fill="#747FE4" points="1475.059 665.56 1481.846 668.275 1475.059 670.99 1477.774 668.275" style="stroke:#747fe4;stroke-width:.6786562606040041"/><line style="stroke:#747fe4;stroke-width:2.035968781812012" x1="1282.321" x2="1479.131" y1="668.275" y2="668.275"/><text x="1287.072" y="663.716" fill="#333" font-family="Open Sans" font-size="13.573" font-weight="bold" lengthAdjust="spacingAndGlyphs" textLength="31.218">[18]</text><text x="1321.004" y="663.716" fill="#333" font-family="Open Sans" font-size="13.573" lengthAdjust="spacingAndGlyphs" textLength="141.839">validate transactions</text><polygon fill="#747FE4" points="1711.91 690.861 1718.697 693.576 1711.91 696.291 1714.625 693.576" style="stroke:#747fe4;stroke-width:.6786562606040041"/><line style="stroke:#747fe4;stroke-width:2.035968781812012" x1="1483.203" x2="1715.982" y1="693.576" y2="693.576"/><text x="1487.954" y="689.018" fill="#333" font-family="Open Sans" font-size="13.573" font-weight="bold" lengthAdjust="spacingAndGlyphs" textLength="31.218">[19]</text><text x="1521.887" y="689.018" fill="#333" font-family="Open Sans" font-size="13.573" lengthAdjust="spacingAndGlyphs" textLength="157.448">execute smart contract</text><polygon fill="#747FE4" points="1490.668 716.163 1483.882 718.877 1490.668 721.592 1487.954 718.877" style="stroke:#747fe4;stroke-width:.6786562606040041"/><line style="stroke:#747fe4;stroke-width:2.035968781812012" x1="1486.597" x2="1719.376" y1="718.877" y2="718.877"/><text x="1494.74" y="714.319" fill="#333" font-family="Open Sans" font-size="13.573" font-weight="bold" lengthAdjust="spacingAndGlyphs" textLength="31.218">[20]</text><text x="1528.673" y="714.319" fill="#333" font-family="Open Sans" font-size="13.573" lengthAdjust="spacingAndGlyphs" textLength="146.59">result of computation</text><line style="stroke:#747fe4;stroke-width:2.035968781812012" x1="1483.203" x2="1511.707" y1="744.178" y2="744.178"/><line style="stroke:#747fe4;stroke-width:2.035968781812012" x1="1511.707" x2="1511.707" y1="744.178" y2="753.001"/><line style="stroke:#747fe4;stroke-width:2.035968781812012" x1="1483.882" x2="1511.707" y1="753.001" y2="753.001"/><polygon fill="#747FE4" points="1490.668 750.286 1483.882 753.001 1490.668 755.716 1487.954 753.001" style="stroke:#747fe4;stroke-width:.6786562606040041"/><text x="1487.954" y="739.62" fill="#333" font-family="Open Sans" font-size="13.573" font-weight="bold" lengthAdjust="spacingAndGlyphs" textLength="31.218">[21]</text><text x="1521.887" y="739.62" fill="#333" font-family="Open Sans" font-size="13.573" lengthAdjust="spacingAndGlyphs" textLength="193.417">store result of computationg</text><polygon fill="#747FE4" points="1289.786 775.587 1283 778.302 1289.786 781.017 1287.072 778.302" style="stroke:#747fe4;stroke-width:.6786562606040041"/><line style="stroke:#747fe4;stroke-width:2.035968781812012" x1="1285.714" x2="1482.525" y1="778.302" y2="778.302"/><text x="1293.858" y="773.744" fill="#333" font-family="Open Sans" font-size="13.573" font-weight="bold" lengthAdjust="spacingAndGlyphs" textLength="31.218">[22]</text><text x="1327.791" y="773.744" fill="#333" font-family="Open Sans" font-size="13.573" lengthAdjust="spacingAndGlyphs" textLength="150.662">validated transactions</text><polygon fill="#747FE4" points="1091.619 800.889 1084.832 803.603 1091.619 806.318 1088.904 803.603" style="stroke:#747fe4;stroke-width:.6786562606040041"/><line style="stroke:#747fe4;stroke-width:2.035968781812012" x1="1087.547" x2="1281.642" y1="803.603" y2="803.603"/><text x="1095.69" y="799.045" fill="#333" font-family="Open Sans" font-size="13.573" font-weight="bold" lengthAdjust="spacingAndGlyphs" textLength="31.218">[23]</text><text x="1129.623" y="799.045" fill="#333" font-family="Open Sans" font-size="13.573" lengthAdjust="spacingAndGlyphs" textLength="110.621">validated blocks</text><polygon fill="#747FE4" points="925.348 826.19 918.561 828.904 925.348 831.619 922.633 828.904" style="stroke:#747fe4;stroke-width:.6786562606040041"/><line style="stroke:#747fe4;stroke-width:2.035968781812012" x1="921.276" x2="1083.475" y1="828.904" y2="828.904"/><text x="929.42" y="824.346" fill="#333" font-family="Open Sans" font-size="13.573" font-weight="bold" lengthAdjust="spacingAndGlyphs" textLength="31.218">[24]</text><text x="963.353" y="824.346" fill="#333" font-family="Open Sans" font-size="13.573" lengthAdjust="spacingAndGlyphs" textLength="116.05">new transactions</text><polygon fill="#747FE4" points="710.214 851.491 703.427 854.206 710.214 856.92 707.499 854.206" style="stroke:#747fe4;stroke-width:.6786562606040041"/><line style="stroke:#747fe4;stroke-width:2.035968781812012" x1="706.142" x2="917.204" y1="854.206" y2="854.206"/><text x="714.286" y="849.647" fill="#333" font-family="Open Sans" font-size="13.573" font-weight="bold" lengthAdjust="spacingAndGlyphs" textLength="31.218">[25]</text><text x="748.218" y="849.647" fill="#333" font-family="Open Sans" font-size="13.573" lengthAdjust="spacingAndGlyphs" textLength="164.913">display the new balance</text><polygon fill="#747FE4" points="531.727 876.792 524.941 879.507 531.727 882.221 529.013 879.507" style="stroke:#747fe4;stroke-width:.6786562606040041"/><line style="stroke:#747fe4;stroke-width:2.035968781812012" x1="527.655" x2="702.07" y1="879.507" y2="879.507"/><text x="535.799" y="874.948" fill="#333" font-family="Open Sans" font-size="13.573" font-weight="bold" lengthAdjust="spacingAndGlyphs" textLength="31.218">[26]</text><text x="569.732" y="874.948" fill="#333" font-family="Open Sans" font-size="13.573" lengthAdjust="spacingAndGlyphs" textLength="86.189">new balance</text></g></svg>