<svg xmlns="http://www.w3.org/2000/svg" xmlns:xlink="http://www.w3.org/1999/xlink" width="1973" height="1355" contentScriptType="application/ecmascript" contentStyleType="text/css" style="width:1973px;height:1355px" preserveAspectRatio="none" version="1.1" viewBox="0 0 1973 1355" zoomAndPan="magnify"><g><text x="779.25" y="28.708" fill="#747FE4" font-family="Open Sans" font-size="18" lengthAdjust="spacingAndGlyphs" textLength="408">Smart contract interactions (component level)</text><rect style="stroke:#a80036;stroke-width:1" width="201" height="1308.281" x="197.5" y="40.953" fill="#E1DABD" rx="12.5" ry="12.5"/><text x="200.5" y="53.02" fill="#000" font-family="sans-serif" font-size="13" font-weight="bold" lengthAdjust="spacingAndGlyphs" textLength="195">Development Environment</text><rect style="stroke:#a80036;stroke-width:1" width="210" height="1308.281" x="841.5" y="40.953" fill="#ABC798" rx="12.5" ry="12.5"/><text x="881.5" y="53.02" fill="#000" font-family="sans-serif" font-size="13" font-weight="bold" lengthAdjust="spacingAndGlyphs" textLength="130">User Environment</text><rect style="stroke:#a80036;stroke-width:1" width="170" height="1308.281" x="1429.5" y="40.953" fill="#028090" rx="12.5" ry="12.5"/><text x="1432.5" y="53.02" fill="#000" font-family="sans-serif" font-size="13" font-weight="bold" lengthAdjust="spacingAndGlyphs" textLength="164">Validator Environment</text><line style="stroke:#6631a0;stroke-width:3;stroke-dasharray:5,5" x1="58" x2="58" y1="172.797" y2="1213.391"/><line style="stroke:#6631a0;stroke-width:3;stroke-dasharray:5,5" x1="298" x2="298" y1="172.797" y2="1213.391"/><line style="stroke:#6631a0;stroke-width:3;stroke-dasharray:5,5" x1="697" x2="697" y1="172.797" y2="1213.391"/><line style="stroke:#6631a0;stroke-width:3;stroke-dasharray:5,5" x1="946.5" x2="946.5" y1="172.797" y2="1213.391"/><line style="stroke:#6631a0;stroke-width:3;stroke-dasharray:5,5" x1="1224.5" x2="1224.5" y1="172.797" y2="1213.391"/><line style="stroke:#6631a0;stroke-width:3;stroke-dasharray:5,5" x1="1514.5" x2="1514.5" y1="172.797" y2="1213.391"/><line style="stroke:#6631a0;stroke-width:3;stroke-dasharray:5,5" x1="1822.5" x2="1822.5" y1="172.797" y2="1213.391"/><text x="5" y="168.08" fill="#6631A0" font-family="Open Sans" font-size="20" lengthAdjust="spacingAndGlyphs" textLength="101">Developer</text><ellipse cx="58.5" cy="96.516" fill="#747FE4" rx="8" ry="8" style="stroke:#6631a0;stroke-width:2"/><path fill="none" d="M58.5,104.5156 L58.5,131.5156 M45.5,112.5156 L71.5,112.5156 M58.5,131.5156 L45.5,146.5156 M58.5,131.5156 L71.5,146.5156" style="stroke:#6631a0;stroke-width:2"/><text x="5" y="1230.955" fill="#6631A0" font-family="Open Sans" font-size="20" lengthAdjust="spacingAndGlyphs" textLength="101">Developer</text><ellipse cx="58.5" cy="1245.672" fill="#747FE4" rx="8" ry="8" style="stroke:#6631a0;stroke-width:2"/><path fill="none" d="M58.5,1253.6719 L58.5,1280.6719 M45.5,1261.6719 L71.5,1261.6719 M58.5,1280.6719 L45.5,1295.6719 M58.5,1280.6719 L71.5,1295.6719" style="stroke:#6631a0;stroke-width:2"/><rect style="stroke:#eae9eb;stroke-width:1.5" width="142" height="107.125" x="227" y="64.672" fill="#EAE9EB" rx="12.5" ry="12.5"/><text x="234" y="90.236" fill="#6631A0" font-family="Open Sans" font-size="20" lengthAdjust="spacingAndGlyphs" textLength="128">&lt;&lt;Editor&gt;&gt;</text><text x="262.5" y="113.518" fill="#6631A0" font-family="Open Sans" font-size="20" lengthAdjust="spacingAndGlyphs" textLength="71">Truffle,</text><text x="253.5" y="136.799" fill="#6631A0" font-family="Open Sans" font-size="20" lengthAdjust="spacingAndGlyphs" textLength="95">Remix or,</text><text x="256.5" y="160.08" fill="#6631A0" font-family="Open Sans" font-size="20" lengthAdjust="spacingAndGlyphs" textLength="89">Terminal</text><rect style="stroke:#eae9eb;stroke-width:1.5" width="142" height="107.125" x="227" y="1212.391" fill="#EAE9EB" rx="12.5" ry="12.5"/><text x="234" y="1237.955" fill="#6631A0" font-family="Open Sans" font-size="20" lengthAdjust="spacingAndGlyphs" textLength="128">&lt;&lt;Editor&gt;&gt;</text><text x="262.5" y="1261.236" fill="#6631A0" font-family="Open Sans" font-size="20" lengthAdjust="spacingAndGlyphs" textLength="71">Truffle,</text><text x="253.5" y="1284.518" fill="#6631A0" font-family="Open Sans" font-size="20" lengthAdjust="spacingAndGlyphs" textLength="95">Remix or,</text><text x="256.5" y="1307.799" fill="#6631A0" font-family="Open Sans" font-size="20" lengthAdjust="spacingAndGlyphs" textLength="89">Terminal</text><text x="672" y="168.08" fill="#6631A0" font-family="Open Sans" font-size="20" lengthAdjust="spacingAndGlyphs" textLength="45">User</text><ellipse cx="697.5" cy="96.516" fill="#747FE4" rx="8" ry="8" style="stroke:#6631a0;stroke-width:2"/><path fill="none" d="M697.5,104.5156 L697.5,131.5156 M684.5,112.5156 L710.5,112.5156 M697.5,131.5156 L684.5,146.5156 M697.5,131.5156 L710.5,146.5156" style="stroke:#6631a0;stroke-width:2"/><text x="672" y="1230.955" fill="#6631A0" font-family="Open Sans" font-size="20" lengthAdjust="spacingAndGlyphs" textLength="45">User</text><ellipse cx="697.5" cy="1245.672" fill="#747FE4" rx="8" ry="8" style="stroke:#6631a0;stroke-width:2"/><path fill="none" d="M697.5,1253.6719 L697.5,1280.6719 M684.5,1261.6719 L710.5,1261.6719 M697.5,1280.6719 L684.5,1295.6719 M697.5,1280.6719 L710.5,1295.6719" style="stroke:#6631a0;stroke-width:2"/><rect style="stroke:#eae9eb;stroke-width:1.5" width="202" height="107.125" x="845.5" y="64.672" fill="#EAE9EB" rx="12.5" ry="12.5"/><text x="880.5" y="90.236" fill="#6631A0" font-family="Open Sans" font-size="20" lengthAdjust="spacingAndGlyphs" textLength="132">&lt;&lt;Wallet&gt;&gt;</text><text x="858.5" y="113.518" fill="#6631A0" font-family="Open Sans" font-size="20" lengthAdjust="spacingAndGlyphs" textLength="176">Integrated in IDE,</text><text x="903" y="136.799" fill="#6631A0" font-family="Open Sans" font-size="20" lengthAdjust="spacingAndGlyphs" textLength="87">Mallet or</text><text x="898" y="160.08" fill="#6631A0" font-family="Open Sans" font-size="20" lengthAdjust="spacingAndGlyphs" textLength="103">Metamask</text><rect style="stroke:#eae9eb;stroke-width:1.5" width="202" height="107.125" x="845.5" y="1212.391" fill="#EAE9EB" rx="12.5" ry="12.5"/><text x="880.5" y="1237.955" fill="#6631A0" font-family="Open Sans" font-size="20" lengthAdjust="spacingAndGlyphs" textLength="132">&lt;&lt;Wallet&gt;&gt;</text><text x="858.5" y="1261.236" fill="#6631A0" font-family="Open Sans" font-size="20" lengthAdjust="spacingAndGlyphs" textLength="176">Integrated in IDE,</text><text x="903" y="1284.518" fill="#6631A0" font-family="Open Sans" font-size="20" lengthAdjust="spacingAndGlyphs" textLength="87">Mallet or</text><text x="898" y="1307.799" fill="#6631A0" font-family="Open Sans" font-size="20" lengthAdjust="spacingAndGlyphs" textLength="103">Metamask</text><text x="1166.5" y="168.08" fill="#6631A0" font-family="Open Sans" font-size="20" lengthAdjust="spacingAndGlyphs" textLength="110">Blockchain</text><path fill="#EAE9EB" d="M1206.5,113.5156 C1206.5,103.5156 1224.5,103.5156 1224.5,103.5156 C1224.5,103.5156 1242.5,103.5156 1242.5,113.5156 L1242.5,139.5156 C1242.5,149.5156 1224.5,149.5156 1224.5,149.5156 C1224.5,149.5156 1206.5,149.5156 1206.5,139.5156 L1206.5,113.5156" style="stroke:#333;stroke-width:1.5"/><path fill="none" d="M1206.5,113.5156 C1206.5,123.5156 1224.5,123.5156 1224.5,123.5156 C1224.5,123.5156 1242.5,123.5156 1242.5,113.5156" style="stroke:#333;stroke-width:1.5"/><text x="1166.5" y="1230.955" fill="#6631A0" font-family="Open Sans" font-size="20" lengthAdjust="spacingAndGlyphs" textLength="110">Blockchain</text><path fill="#EAE9EB" d="M1206.5,1245.6719 C1206.5,1235.6719 1224.5,1235.6719 1224.5,1235.6719 C1224.5,1235.6719 1242.5,1235.6719 1242.5,1245.6719 L1242.5,1271.6719 C1242.5,1281.6719 1224.5,1281.6719 1224.5,1281.6719 C1224.5,1281.6719 1206.5,1281.6719 1206.5,1271.6719 L1206.5,1245.6719" style="stroke:#333;stroke-width:1.5"/><path fill="none" d="M1206.5,1245.6719 C1206.5,1255.6719 1224.5,1255.6719 1224.5,1255.6719 C1224.5,1255.6719 1242.5,1255.6719 1242.5,1245.6719" style="stroke:#333;stroke-width:1.5"/><rect style="stroke:#eae9eb;stroke-width:1.5" width="138" height="37.281" x="1445.5" y="134.516" fill="#EAE9EB" rx="12.5" ry="12.5"/><text x="1452.5" y="160.08" fill="#6631A0" font-family="Open Sans" font-size="20" lengthAdjust="spacingAndGlyphs" textLength="124">Mantis Node</text><rect style="stroke:#eae9eb;stroke-width:1.5" width="138" height="37.281" x="1445.5" y="1212.391" fill="#EAE9EB" rx="12.5" ry="12.5"/><text x="1452.5" y="1237.955" fill="#6631A0" font-family="Open Sans" font-size="20" lengthAdjust="spacingAndGlyphs" textLength="124">Mantis Node</text><text x="1683.5" y="121.518" fill="#6631A0" font-family="Open Sans" font-size="20" lengthAdjust="spacingAndGlyphs" textLength="272">&lt;&lt;Blockchain validator&gt;&gt;</text><text x="1709.5" y="144.799" fill="#6631A0" font-family="Open Sans" font-size="20" lengthAdjust="spacingAndGlyphs" textLength="226">Stake Pool Operator or</text><text x="1794.5" y="168.08" fill="#6631A0" font-family="Open Sans" font-size="20" lengthAdjust="spacingAndGlyphs" textLength="56">Miner</text><ellipse cx="1822.5" cy="49.953" fill="#747FE4" rx="8" ry="8" style="stroke:#6631a0;stroke-width:2"/><path fill="none" d="M1822.5,57.9531 L1822.5,84.9531 M1809.5,65.9531 L1835.5,65.9531 M1822.5,84.9531 L1809.5,99.9531 M1822.5,84.9531 L1835.5,99.9531" style="stroke:#6631a0;stroke-width:2"/><text x="1683.5" y="1230.955" fill="#6631A0" font-family="Open Sans" font-size="20" lengthAdjust="spacingAndGlyphs" textLength="272">&lt;&lt;Blockchain validator&gt;&gt;</text><text x="1709.5" y="1254.236" fill="#6631A0" font-family="Open Sans" font-size="20" lengthAdjust="spacingAndGlyphs" textLength="226">Stake Pool Operator or</text><text x="1794.5" y="1277.518" fill="#6631A0" font-family="Open Sans" font-size="20" lengthAdjust="spacingAndGlyphs" textLength="56">Miner</text><ellipse cx="1822.5" cy="1292.234" fill="#747FE4" rx="8" ry="8" style="stroke:#6631a0;stroke-width:2"/><path fill="none" d="M1822.5,1300.2344 L1822.5,1327.2344 M1809.5,1308.2344 L1835.5,1308.2344 M1822.5,1327.2344 L1809.5,1342.2344 M1822.5,1327.2344 L1835.5,1342.2344" style="stroke:#6631a0;stroke-width:2"/><rect style="stroke:#747fe4;stroke-width:1" width="1966.5" height="3" x="0" y="207.438" fill="#747FE4"/><line style="stroke:#747fe4;stroke-width:2.5" x1="0" x2="1966.5" y1="207.438" y2="207.438"/><line style="stroke:#747fe4;stroke-width:2.5" x1="0" x2="1966.5" y1="210.438" y2="210.438"/><rect style="stroke:#747fe4;stroke-width:5" width="218" height="31.281" x="874.25" y="192.797" fill="#747FE4"/><text x="880.25" y="215.361" fill="#333" font-family="Open Sans" font-size="20" lengthAdjust="spacingAndGlyphs" textLength="198">Development Stage</text><polygon fill="#747FE4" points="286 259.359 296 263.359 286 267.359 290 263.359" style="stroke:#747fe4;stroke-width:1"/><line style="stroke:#747fe4;stroke-width:3" x1="58.5" x2="292" y1="263.359" y2="263.359"/><text x="65.5" y="256.643" fill="#333" font-family="Open Sans" font-size="20" font-weight="bold" lengthAdjust="spacingAndGlyphs" textLength="32">[1]</text><text x="101.5" y="256.643" fill="#333" font-family="Open Sans" font-size="20" lengthAdjust="spacingAndGlyphs" textLength="154">code in Solidity</text><line style="stroke:#747fe4;stroke-width:3" x1="298" x2="340" y1="347.203" y2="347.203"/><line style="stroke:#747fe4;stroke-width:3" x1="340" x2="340" y1="347.203" y2="360.203"/><line style="stroke:#747fe4;stroke-width:3" x1="299" x2="340" y1="360.203" y2="360.203"/><polygon fill="#747FE4" points="309 356.203 299 360.203 309 364.203 305 360.203" style="stroke:#747fe4;stroke-width:1"/><text x="305" y="317.205" fill="#333" font-family="Open Sans" font-size="20" font-weight="bold" lengthAdjust="spacingAndGlyphs" textLength="32">[2]</text><text x="341" y="293.924" fill="#333" font-family="Open Sans" font-size="20" lengthAdjust="spacingAndGlyphs" textLength="139">try to compile</text><text x="347" y="317.205" fill="#333" font-family="Open Sans" font-size="20" lengthAdjust="spacingAndGlyphs" textLength="213">fix compilation errors</text><text x="347" y="340.486" fill="#333" font-family="Open Sans" font-size="20" lengthAdjust="spacingAndGlyphs" textLength="318">translate code to IELE assembly</text><polygon fill="#747FE4" points="934.5 393.484 944.5 397.484 934.5 401.484 938.5 397.484" style="stroke:#747fe4;stroke-width:1"/><line style="stroke:#747fe4;stroke-width:3" x1="298" x2="940.5" y1="397.484" y2="397.484"/><text x="305" y="390.768" fill="#333" font-family="Open Sans" font-size="20" font-weight="bold" lengthAdjust="spacingAndGlyphs" textLength="32">[3]</text><text x="341" y="390.768" fill="#333" font-family="Open Sans" font-size="20" lengthAdjust="spacingAndGlyphs" textLength="220">deploy smart contract</text><path fill="#E1DABD" d="M303,422.9844 L303,476.9844 A12.5,12.5 0 0 0 315.5,489.4844 L514.5,489.4844 A12.5,12.5 0 0 0 527,476.9844 L527,420.4844 L517,410.4844 L315.5,410.4844 A12.5,12.5 0 0 0 303,422.9844" style="stroke:#6631a0;stroke-width:1"/><path fill="#E1DABD" d="M517,410.4844 L517,414.2344 A6.25,6.25 0 0 0 523.25,420.4844 L527,420.4844 L517,410.4844" style="stroke:#6631a0;stroke-width:1"/><text x="318" y="434.049" fill="#333" font-family="Open Sans" font-size="20" lengthAdjust="spacingAndGlyphs" textLength="194">load IELE Assembly</text><text x="334" y="457.33" fill="#333" font-family="Open Sans" font-size="20" lengthAdjust="spacingAndGlyphs" textLength="162">pay commission</text><text x="334.5" y="480.611" fill="#333" font-family="Open Sans" font-size="20" lengthAdjust="spacingAndGlyphs" textLength="161">sign transaction</text><polygon fill="#747FE4" points="957.5 543.891 947.5 547.891 957.5 551.891 953.5 547.891" style="stroke:#747fe4;stroke-width:1"/><polygon fill="#747FE4" points="1212.5 543.891 1222.5 547.891 1212.5 551.891 1216.5 547.891" style="stroke:#747fe4;stroke-width:1"/><line style="stroke:#747fe4;stroke-width:3" x1="951.5" x2="1218.5" y1="547.891" y2="547.891"/><text x="963.5" y="529.533" fill="#333" font-family="Open Sans" font-size="20" font-weight="bold" lengthAdjust="spacingAndGlyphs" textLength="32">[4]</text><text x="999.5" y="517.893" fill="#333" font-family="Open Sans" font-size="20" lengthAdjust="spacingAndGlyphs" textLength="173">send transaction,</text><text x="1005.5" y="541.174" fill="#333" font-family="Open Sans" font-size="20" lengthAdjust="spacingAndGlyphs" textLength="206">receive confirmation</text><polygon fill="#747FE4" points="69.5 581.172 59.5 585.172 69.5 589.172 65.5 585.172" style="stroke:#747fe4;stroke-width:1"/><line style="stroke:#747fe4;stroke-width:3" x1="63.5" x2="945.5" y1="585.172" y2="585.172"/><text x="75.5" y="578.455" fill="#333" font-family="Open Sans" font-size="20" font-weight="bold" lengthAdjust="spacingAndGlyphs" textLength="32">[5]</text><text x="111.5" y="578.455" fill="#333" font-family="Open Sans" font-size="20" lengthAdjust="spacingAndGlyphs" textLength="167">contract address</text><rect style="stroke:#747fe4;stroke-width:1" width="1966.5" height="3" x="0" y="617.813" fill="#747FE4"/><line style="stroke:#747fe4;stroke-width:2.5" x1="0" x2="1966.5" y1="617.813" y2="617.813"/><line style="stroke:#747fe4;stroke-width:2.5" x1="0" x2="1966.5" y1="620.813" y2="620.813"/><rect style="stroke:#747fe4;stroke-width:5" width="183" height="31.281" x="891.75" y="603.172" fill="#747FE4"/><text x="897.75" y="625.736" fill="#333" font-family="Open Sans" font-size="20" lengthAdjust="spacingAndGlyphs" textLength="163">Execution Stage</text><polygon fill="#747FE4" points="934.5 669.734 944.5 673.734 934.5 677.734 938.5 673.734" style="stroke:#747fe4;stroke-width:1"/><line style="stroke:#747fe4;stroke-width:3" x1="697.5" x2="940.5" y1="673.734" y2="673.734"/><text x="704.5" y="667.018" fill="#333" font-family="Open Sans" font-size="20" font-weight="bold" lengthAdjust="spacingAndGlyphs" textLength="32">[6]</text><text x="740.5" y="667.018" fill="#333" font-family="Open Sans" font-size="20" lengthAdjust="spacingAndGlyphs" textLength="189">deposit to contract</text><line style="stroke:#747fe4;stroke-width:3" x1="946.5" x2="988.5" y1="711.016" y2="711.016"/><line style="stroke:#747fe4;stroke-width:3" x1="988.5" x2="988.5" y1="711.016" y2="724.016"/><line style="stroke:#747fe4;stroke-width:3" x1="947.5" x2="988.5" y1="724.016" y2="724.016"/><polygon fill="#747FE4" points="957.5 720.016 947.5 724.016 957.5 728.016 953.5 724.016" style="stroke:#747fe4;stroke-width:1"/><text x="953.5" y="704.299" fill="#333" font-family="Open Sans" font-size="20" font-weight="bold" lengthAdjust="spacingAndGlyphs" textLength="32">[7]</text><text x="989.5" y="704.299" fill="#333" font-family="Open Sans" font-size="20" lengthAdjust="spacingAndGlyphs" textLength="170">write transaction</text><polygon fill="#747FE4" points="1212.5 757.297 1222.5 761.297 1212.5 765.297 1216.5 761.297" style="stroke:#747fe4;stroke-width:1"/><line style="stroke:#747fe4;stroke-width:3" x1="946.5" x2="1218.5" y1="761.297" y2="761.297"/><text x="953.5" y="754.58" fill="#333" font-family="Open Sans" font-size="20" font-weight="bold" lengthAdjust="spacingAndGlyphs" textLength="32">[8]</text><text x="989.5" y="754.58" fill="#333" font-family="Open Sans" font-size="20" lengthAdjust="spacingAndGlyphs" textLength="167">send transaction</text><polygon fill="#747FE4" points="1502.5 817.859 1512.5 821.859 1502.5 825.859 1506.5 821.859" style="stroke:#747fe4;stroke-width:1"/><line style="stroke:#747fe4;stroke-width:3" x1="1224.5" x2="1508.5" y1="821.859" y2="821.859"/><text x="1231.5" y="803.502" fill="#333" font-family="Open Sans" font-size="20" font-weight="bold" lengthAdjust="spacingAndGlyphs" textLength="32">[9]</text><text x="1267.5" y="791.861" fill="#333" font-family="Open Sans" font-size="20" lengthAdjust="spacingAndGlyphs" textLength="184">append new block</text><text x="1267.5" y="815.143" fill="#333" font-family="Open Sans" font-size="20" lengthAdjust="spacingAndGlyphs" textLength="218">(a set of transactions)</text><polygon fill="#747FE4" points="1525.5 855.141 1515.5 859.141 1525.5 863.141 1521.5 859.141" style="stroke:#747fe4;stroke-width:1"/><line style="stroke:#747fe4;stroke-width:3;stroke-dasharray:2,2" x1="1519.5" x2="1821.5" y1="859.141" y2="859.141"/><text x="1531.5" y="852.424" fill="#333" font-family="Open Sans" font-size="20" font-weight="bold" lengthAdjust="spacingAndGlyphs" textLength="46">[10]</text><text x="1581.5" y="852.424" fill="#333" font-family="Open Sans" font-size="20" lengthAdjust="spacingAndGlyphs" textLength="146">monitor status</text><line style="stroke:#747fe4;stroke-width:3" x1="1514.5" x2="1556.5" y1="896.422" y2="896.422"/><line style="stroke:#747fe4;stroke-width:3" x1="1556.5" x2="1556.5" y1="896.422" y2="909.422"/><line style="stroke:#747fe4;stroke-width:3" x1="1515.5" x2="1556.5" y1="909.422" y2="909.422"/><polygon fill="#747FE4" points="1525.5 905.422 1515.5 909.422 1525.5 913.422 1521.5 909.422" style="stroke:#747fe4;stroke-width:1"/><text x="1521.5" y="889.705" fill="#333" font-family="Open Sans" font-size="20" font-weight="bold" lengthAdjust="spacingAndGlyphs" textLength="46">[11]</text><text x="1571.5" y="889.705" fill="#333" font-family="Open Sans" font-size="20" lengthAdjust="spacingAndGlyphs" textLength="209">validate transactions</text><line style="stroke:#747fe4;stroke-width:3" x1="1514.5" x2="1556.5" y1="946.703" y2="946.703"/><line style="stroke:#747fe4;stroke-width:3" x1="1556.5" x2="1556.5" y1="946.703" y2="959.703"/><line style="stroke:#747fe4;stroke-width:3" x1="1515.5" x2="1556.5" y1="959.703" y2="959.703"/><polygon fill="#747FE4" points="1525.5 955.703 1515.5 959.703 1525.5 963.703 1521.5 959.703" style="stroke:#747fe4;stroke-width:1"/><text x="1521.5" y="939.986" fill="#333" font-family="Open Sans" font-size="20" font-weight="bold" lengthAdjust="spacingAndGlyphs" textLength="46">[12]</text><text x="1571.5" y="939.986" fill="#333" font-family="Open Sans" font-size="20" lengthAdjust="spacingAndGlyphs" textLength="232">execute smart contract</text><line style="stroke:#747fe4;stroke-width:3" x1="1514.5" x2="1556.5" y1="1020.266" y2="1020.266"/><line style="stroke:#747fe4;stroke-width:3" x1="1556.5" x2="1556.5" y1="1020.266" y2="1033.266"/><line style="stroke:#747fe4;stroke-width:3" x1="1515.5" x2="1556.5" y1="1033.266" y2="1033.266"/><polygon fill="#747FE4" points="1525.5 1029.266 1515.5 1033.266 1525.5 1037.266 1521.5 1033.266" style="stroke:#747fe4;stroke-width:1"/><text x="1521.5" y="1001.908" fill="#333" font-family="Open Sans" font-size="20" font-weight="bold" lengthAdjust="spacingAndGlyphs" textLength="46">[13]</text><text x="1571.5" y="990.268" fill="#333" font-family="Open Sans" font-size="20" lengthAdjust="spacingAndGlyphs" textLength="203">create new block to,</text><text x="1577.5" y="1013.549" fill="#333" font-family="Open Sans" font-size="20" lengthAdjust="spacingAndGlyphs" textLength="113">store result</text><line style="stroke:#747fe4;stroke-width:3" x1="1514.5" x2="1556.5" y1="1070.547" y2="1070.547"/><line style="stroke:#747fe4;stroke-width:3" x1="1556.5" x2="1556.5" y1="1070.547" y2="1083.547"/><line style="stroke:#747fe4;stroke-width:3" x1="1515.5" x2="1556.5" y1="1083.547" y2="1083.547"/><polygon fill="#747FE4" points="1525.5 1079.547 1515.5 1083.547 1525.5 1087.547 1521.5 1083.547" style="stroke:#747fe4;stroke-width:1"/><text x="1521.5" y="1063.83" fill="#333" font-family="Open Sans" font-size="20" font-weight="bold" lengthAdjust="spacingAndGlyphs" textLength="46">[14]</text><text x="1571.5" y="1063.83" fill="#333" font-family="Open Sans" font-size="20" lengthAdjust="spacingAndGlyphs" textLength="222">validated transactions</text><polygon fill="#747FE4" points="1235.5 1116.828 1225.5 1120.828 1235.5 1124.828 1231.5 1120.828" style="stroke:#747fe4;stroke-width:1"/><line style="stroke:#747fe4;stroke-width:3" x1="1229.5" x2="1513.5" y1="1120.828" y2="1120.828"/><text x="1241.5" y="1114.111" fill="#333" font-family="Open Sans" font-size="20" font-weight="bold" lengthAdjust="spacingAndGlyphs" textLength="46">[15]</text><text x="1291.5" y="1114.111" fill="#333" font-family="Open Sans" font-size="20" lengthAdjust="spacingAndGlyphs" textLength="163">validated blocks</text><polygon fill="#747FE4" points="957.5 1154.109 947.5 1158.109 957.5 1162.109 953.5 1158.109" style="stroke:#747fe4;stroke-width:1"/><line style="stroke:#747fe4;stroke-width:3" x1="951.5" x2="1223.5" y1="1158.109" y2="1158.109"/><text x="963.5" y="1151.393" fill="#333" font-family="Open Sans" font-size="20" font-weight="bold" lengthAdjust="spacingAndGlyphs" textLength="46">[16]</text><text x="1013.5" y="1151.393" fill="#333" font-family="Open Sans" font-size="20" lengthAdjust="spacingAndGlyphs" textLength="204">display new balance</text><polygon fill="#747FE4" points="708.5 1191.391 698.5 1195.391 708.5 1199.391 704.5 1195.391" style="stroke:#747fe4;stroke-width:1"/><line style="stroke:#747fe4;stroke-width:3" x1="702.5" x2="945.5" y1="1195.391" y2="1195.391"/><text x="714.5" y="1188.674" fill="#333" font-family="Open Sans" font-size="20" font-weight="bold" lengthAdjust="spacingAndGlyphs" textLength="46">[17]</text><text x="764.5" y="1188.674" fill="#333" font-family="Open Sans" font-size="20" lengthAdjust="spacingAndGlyphs" textLength="127">new balance</text></g></svg>