<svg xmlns="http://www.w3.org/2000/svg" xmlns:xlink="http://www.w3.org/1999/xlink" width="1196" height="662" contentScriptType="application/ecmascript" contentStyleType="text/css" style="width:1196px;height:662px" preserveAspectRatio="none" version="1.1" viewBox="0 0 1196 662" zoomAndPan="magnify"><g><text x="406.75" y="28.708" fill="#747FE4" font-family="Open Sans" font-size="18" lengthAdjust="spacingAndGlyphs" textLength="376">Smart contract interactions (context level)</text><rect style="stroke:#6631a0;stroke-width:1" width="10" height="37.281" x="53.5" y="216.797" fill="#E1DABD"/><rect style="stroke:#6631a0;stroke-width:1" width="10" height="212.406" x="142.5" y="342.641" fill="#ABC798"/><rect style="stroke:#6631a0;stroke-width:1" width="10" height="137.844" x="811.5" y="379.922" fill="#028090"/><line style="stroke:#6631a0;stroke-width:3;stroke-dasharray:5,5" x1="58" x2="58" y1="126.234" y2="573.047"/><line style="stroke:#6631a0;stroke-width:3;stroke-dasharray:5,5" x1="147" x2="147" y1="126.234" y2="573.047"/><line style="stroke:#6631a0;stroke-width:3;stroke-dasharray:5,5" x1="588.5" x2="588.5" y1="126.234" y2="573.047"/><line style="stroke:#6631a0;stroke-width:3;stroke-dasharray:5,5" x1="816" x2="816" y1="126.234" y2="573.047"/><text x="5" y="121.518" fill="#6631A0" font-family="Open Sans" font-size="20" lengthAdjust="spacingAndGlyphs" textLength="101">Developer</text><ellipse cx="58.5" cy="49.953" fill="#747FE4" rx="8" ry="8" style="stroke:#6631a0;stroke-width:2"/><path fill="none" d="M58.5,57.9531 L58.5,84.9531 M45.5,65.9531 L71.5,65.9531 M58.5,84.9531 L45.5,99.9531 M58.5,84.9531 L71.5,99.9531" style="stroke:#6631a0;stroke-width:2"/><text x="5" y="590.611" fill="#6631A0" font-family="Open Sans" font-size="20" lengthAdjust="spacingAndGlyphs" textLength="101">Developer</text><ellipse cx="58.5" cy="605.328" fill="#747FE4" rx="8" ry="8" style="stroke:#6631a0;stroke-width:2"/><path fill="none" d="M58.5,613.3281 L58.5,640.3281 M45.5,621.3281 L71.5,621.3281 M58.5,640.3281 L45.5,655.3281 M58.5,640.3281 L71.5,655.3281" style="stroke:#6631a0;stroke-width:2"/><text x="122" y="121.518" fill="#6631A0" font-family="Open Sans" font-size="20" lengthAdjust="spacingAndGlyphs" textLength="45">User</text><ellipse cx="147.5" cy="49.953" fill="#747FE4" rx="8" ry="8" style="stroke:#6631a0;stroke-width:2"/><path fill="none" d="M147.5,57.9531 L147.5,84.9531 M134.5,65.9531 L160.5,65.9531 M147.5,84.9531 L134.5,99.9531 M147.5,84.9531 L160.5,99.9531" style="stroke:#6631a0;stroke-width:2"/><text x="122" y="590.611" fill="#6631A0" font-family="Open Sans" font-size="20" lengthAdjust="spacingAndGlyphs" textLength="45">User</text><ellipse cx="147.5" cy="605.328" fill="#747FE4" rx="8" ry="8" style="stroke:#6631a0;stroke-width:2"/><path fill="none" d="M147.5,613.3281 L147.5,640.3281 M134.5,621.3281 L160.5,621.3281 M147.5,640.3281 L134.5,655.3281 M147.5,640.3281 L160.5,655.3281" style="stroke:#6631a0;stroke-width:2"/><text x="530.5" y="121.518" fill="#6631A0" font-family="Open Sans" font-size="20" lengthAdjust="spacingAndGlyphs" textLength="110">Blockchain</text><path fill="#EAE9EB" d="M570.5,66.9531 C570.5,56.9531 588.5,56.9531 588.5,56.9531 C588.5,56.9531 606.5,56.9531 606.5,66.9531 L606.5,92.9531 C606.5,102.9531 588.5,102.9531 588.5,102.9531 C588.5,102.9531 570.5,102.9531 570.5,92.9531 L570.5,66.9531" style="stroke:#333;stroke-width:1.5"/><path fill="none" d="M570.5,66.9531 C570.5,76.9531 588.5,76.9531 588.5,76.9531 C588.5,76.9531 606.5,76.9531 606.5,66.9531" style="stroke:#333;stroke-width:1.5"/><text x="530.5" y="590.611" fill="#6631A0" font-family="Open Sans" font-size="20" lengthAdjust="spacingAndGlyphs" textLength="110">Blockchain</text><path fill="#EAE9EB" d="M570.5,605.3281 C570.5,595.3281 588.5,595.3281 588.5,595.3281 C588.5,595.3281 606.5,595.3281 606.5,605.3281 L606.5,631.3281 C606.5,641.3281 588.5,641.3281 588.5,641.3281 C588.5,641.3281 570.5,641.3281 570.5,631.3281 L570.5,605.3281" style="stroke:#333;stroke-width:1.5"/><path fill="none" d="M570.5,605.3281 C570.5,615.3281 588.5,615.3281 588.5,615.3281 C588.5,615.3281 606.5,615.3281 606.5,605.3281" style="stroke:#333;stroke-width:1.5"/><text x="683" y="121.518" fill="#6631A0" font-family="Open Sans" font-size="20" lengthAdjust="spacingAndGlyphs" textLength="261">&lt;&lt;Blokchain validator&gt;&gt;</text><ellipse cx="816.5" cy="49.953" fill="#747FE4" rx="8" ry="8" style="stroke:#6631a0;stroke-width:2"/><path fill="none" d="M816.5,57.9531 L816.5,84.9531 M803.5,65.9531 L829.5,65.9531 M816.5,84.9531 L803.5,99.9531 M816.5,84.9531 L829.5,99.9531" style="stroke:#6631a0;stroke-width:2"/><text x="683" y="590.611" fill="#6631A0" font-family="Open Sans" font-size="20" lengthAdjust="spacingAndGlyphs" textLength="261">&lt;&lt;Blokchain validator&gt;&gt;</text><ellipse cx="816.5" cy="605.328" fill="#747FE4" rx="8" ry="8" style="stroke:#6631a0;stroke-width:2"/><path fill="none" d="M816.5,613.3281 L816.5,640.3281 M803.5,621.3281 L829.5,621.3281 M816.5,640.3281 L803.5,655.3281 M816.5,640.3281 L829.5,655.3281" style="stroke:#6631a0;stroke-width:2"/><rect style="stroke:#6631a0;stroke-width:1" width="10" height="37.281" x="53.5" y="216.797" fill="#E1DABD"/><rect style="stroke:#6631a0;stroke-width:1" width="10" height="212.406" x="142.5" y="342.641" fill="#ABC798"/><rect style="stroke:#6631a0;stroke-width:1" width="10" height="137.844" x="811.5" y="379.922" fill="#028090"/><rect style="stroke:#747fe4;stroke-width:1" width="1189.5" height="3" x="0" y="160.875" fill="#747FE4"/><line style="stroke:#747fe4;stroke-width:2.5" x1="0" x2="1189.5" y1="160.875" y2="160.875"/><line style="stroke:#747fe4;stroke-width:2.5" x1="0" x2="1189.5" y1="163.875" y2="163.875"/><rect style="stroke:#747fe4;stroke-width:5" width="219" height="31.281" x="485.25" y="146.234" fill="#747FE4"/><text x="491.25" y="168.799" fill="#333" font-family="Open Sans" font-size="20" lengthAdjust="spacingAndGlyphs" textLength="199">Development Phase</text><polygon fill="#747FE4" points="576.5 212.797 586.5 216.797 576.5 220.797 580.5 216.797" style="stroke:#747fe4;stroke-width:1"/><line style="stroke:#747fe4;stroke-width:3" x1="63.5" x2="582.5" y1="216.797" y2="216.797"/><text x="70.5" y="210.08" fill="#333" font-family="Open Sans" font-size="20" font-weight="bold" lengthAdjust="spacingAndGlyphs" textLength="32">[1]</text><text x="106.5" y="210.08" fill="#333" font-family="Open Sans" font-size="20" lengthAdjust="spacingAndGlyphs" textLength="338">codes and deploys smart contract</text><polygon fill="#747FE4" points="69.5 250.078 59.5 254.078 69.5 258.078 65.5 254.078" style="stroke:#747fe4;stroke-width:1"/><line style="stroke:#747fe4;stroke-width:3" x1="63.5" x2="587.5" y1="254.078" y2="254.078"/><text x="75.5" y="247.361" fill="#333" font-family="Open Sans" font-size="20" font-weight="bold" lengthAdjust="spacingAndGlyphs" textLength="32">[2]</text><text x="111.5" y="247.361" fill="#333" font-family="Open Sans" font-size="20" lengthAdjust="spacingAndGlyphs" textLength="128">confirmation</text><rect style="stroke:#747fe4;stroke-width:1" width="1189.5" height="3" x="0" y="286.719" fill="#747FE4"/><line style="stroke:#747fe4;stroke-width:2.5" x1="0" x2="1189.5" y1="286.719" y2="286.719"/><line style="stroke:#747fe4;stroke-width:2.5" x1="0" x2="1189.5" y1="289.719" y2="289.719"/><rect style="stroke:#747fe4;stroke-width:5" width="184" height="31.281" x="502.75" y="272.078" fill="#747FE4"/><text x="508.75" y="294.643" fill="#333" font-family="Open Sans" font-size="20" lengthAdjust="spacingAndGlyphs" textLength="164">Execution Phase</text><polygon fill="#747FE4" points="576.5 338.641 586.5 342.641 576.5 346.641 580.5 342.641" style="stroke:#747fe4;stroke-width:1"/><line style="stroke:#747fe4;stroke-width:3" x1="152.5" x2="582.5" y1="342.641" y2="342.641"/><text x="159.5" y="335.924" fill="#333" font-family="Open Sans" font-size="20" font-weight="bold" lengthAdjust="spacingAndGlyphs" textLength="32">[3]</text><text x="195.5" y="335.924" fill="#333" font-family="Open Sans" font-size="20" lengthAdjust="spacingAndGlyphs" textLength="381">depost to interact with smart contract</text><polygon fill="#747FE4" points="799.5 375.922 809.5 379.922 799.5 383.922 803.5 379.922" style="stroke:#747fe4;stroke-width:1"/><line style="stroke:#747fe4;stroke-width:3" x1="588.5" x2="805.5" y1="379.922" y2="379.922"/><text x="595.5" y="373.205" fill="#333" font-family="Open Sans" font-size="20" font-weight="bold" lengthAdjust="spacingAndGlyphs" textLength="32">[4]</text><text x="631.5" y="373.205" fill="#333" font-family="Open Sans" font-size="20" lengthAdjust="spacingAndGlyphs" textLength="112">new blocks</text><line style="stroke:#747fe4;stroke-width:3" x1="821.5" x2="863.5" y1="417.203" y2="417.203"/><line style="stroke:#747fe4;stroke-width:3" x1="863.5" x2="863.5" y1="417.203" y2="430.203"/><line style="stroke:#747fe4;stroke-width:3" x1="822.5" x2="863.5" y1="430.203" y2="430.203"/><polygon fill="#747FE4" points="832.5 426.203 822.5 430.203 832.5 434.203 828.5 430.203" style="stroke:#747fe4;stroke-width:1"/><text x="828.5" y="410.486" fill="#333" font-family="Open Sans" font-size="20" font-weight="bold" lengthAdjust="spacingAndGlyphs" textLength="32">[5]</text><text x="864.5" y="410.486" fill="#333" font-family="Open Sans" font-size="20" lengthAdjust="spacingAndGlyphs" textLength="242">execute smart contracts</text><line style="stroke:#747fe4;stroke-width:3" x1="821.5" x2="863.5" y1="467.484" y2="467.484"/><line style="stroke:#747fe4;stroke-width:3" x1="863.5" x2="863.5" y1="467.484" y2="480.484"/><line style="stroke:#747fe4;stroke-width:3" x1="822.5" x2="863.5" y1="480.484" y2="480.484"/><polygon fill="#747FE4" points="832.5 476.484 822.5 480.484 832.5 484.484 828.5 480.484" style="stroke:#747fe4;stroke-width:1"/><text x="828.5" y="460.768" fill="#333" font-family="Open Sans" font-size="20" font-weight="bold" lengthAdjust="spacingAndGlyphs" textLength="32">[6]</text><text x="864.5" y="460.768" fill="#333" font-family="Open Sans" font-size="20" lengthAdjust="spacingAndGlyphs" textLength="313">create new blocks (sometimes)</text><polygon fill="#747FE4" points="599.5 513.766 589.5 517.766 599.5 521.766 595.5 517.766" style="stroke:#747fe4;stroke-width:1"/><line style="stroke:#747fe4;stroke-width:3" x1="593.5" x2="815.5" y1="517.766" y2="517.766"/><text x="605.5" y="511.049" fill="#333" font-family="Open Sans" font-size="20" font-weight="bold" lengthAdjust="spacingAndGlyphs" textLength="32">[7]</text><text x="641.5" y="511.049" fill="#333" font-family="Open Sans" font-size="20" lengthAdjust="spacingAndGlyphs" textLength="163">validated blocks</text><polygon fill="#747FE4" points="158.5 551.047 148.5 555.047 158.5 559.047 154.5 555.047" style="stroke:#747fe4;stroke-width:1"/><line style="stroke:#747fe4;stroke-width:3" x1="152.5" x2="587.5" y1="555.047" y2="555.047"/><text x="164.5" y="548.33" fill="#333" font-family="Open Sans" font-size="20" font-weight="bold" lengthAdjust="spacingAndGlyphs" textLength="32">[8]</text><text x="200.5" y="548.33" fill="#333" font-family="Open Sans" font-size="20" lengthAdjust="spacingAndGlyphs" textLength="137">new balances</text></g></svg>